<svg width="31" height="30" viewBox="0 0 31 30" id="days" fill="none" xmlns="http://www.w3.org/2000/svg">
<g clip-path="url(#clip0_100_2137)">
<path d="M16.6919 0.955249L19.4456 3.36988C19.9255 3.7907 20.5308 4.04143 21.1677 4.08321L24.8223 4.32295C25.6234 4.37551 26.2615 5.01365 26.3141 5.81478L26.5538 9.46932C26.5956 10.1062 26.8463 10.7116 27.2672 11.1915L29.6818 13.9451C30.2111 14.5488 30.2111 15.4513 29.6818 16.0549L27.2672 18.8086C26.8463 19.2885 26.5956 19.8938 26.5538 20.5307L26.3141 24.1853C26.2615 24.9864 25.6234 25.6245 24.8223 25.6771L21.1677 25.9168C20.5308 25.9586 19.9255 26.2093 19.4456 26.6302L16.6919 29.0448C16.0882 29.5741 15.1858 29.5741 14.5821 29.0448L11.8285 26.6302C11.3486 26.2093 10.7432 25.9586 10.1063 25.9168L6.45178 25.6771C5.65064 25.6245 5.0125 24.9864 4.95994 24.1853L4.72021 20.5307C4.67843 19.8938 4.42769 19.2885 4.00687 18.8086L1.59224 16.0549C1.06291 15.4513 1.06291 14.5488 1.59224 13.9451L4.00687 11.1915C4.42769 10.7116 4.67843 10.1062 4.72021 9.46932L4.95994 5.81479C5.0125 5.01365 5.65064 4.37551 6.45178 4.32295L10.1063 4.08321C10.7432 4.04143 11.3486 3.79069 11.8285 3.36988L14.5821 0.955248C15.1858 0.425919 16.0882 0.425919 16.6919 0.955249Z" stroke="url(#paint0_linear_100_2137)" stroke-width="1.3"/>
<path d="M10.3406 11.048C10.3718 10.4232 10.5905 9.94217 10.9966 9.60479C11.4089 9.26117 11.9493 9.08936 12.6178 9.08936C13.0739 9.08936 13.4644 9.17058 13.7893 9.33302C14.1142 9.48921 14.3578 9.70476 14.5203 9.97965C14.689 10.2483 14.7733 10.5544 14.7733 10.8981C14.7733 11.2917 14.6702 11.6259 14.464 11.9008C14.2641 12.1695 14.0236 12.3506 13.7424 12.4444V12.4818C14.1048 12.5943 14.3859 12.7942 14.5859 13.0816C14.792 13.369 14.8951 13.7376 14.8951 14.1875C14.8951 14.5623 14.8077 14.8966 14.6327 15.1902C14.464 15.4839 14.211 15.715 13.8736 15.8837C13.5425 16.0461 13.1427 16.1274 12.6741 16.1274C11.9681 16.1274 11.3933 15.9493 10.9497 15.5932C10.5061 15.2371 10.2718 14.7123 10.2469 14.0188H11.5214C11.5339 14.3249 11.637 14.5717 11.8306 14.7591C12.0306 14.9403 12.3023 15.0309 12.646 15.0309C12.9646 15.0309 13.2083 14.9434 13.3769 14.7685C13.5519 14.5873 13.6393 14.3561 13.6393 14.075C13.6393 13.7001 13.5206 13.4315 13.2832 13.2691C13.0458 13.1066 12.6772 13.0254 12.1774 13.0254H11.9056V11.9477H12.1774C13.0646 11.9477 13.5081 11.6509 13.5081 11.0574C13.5081 10.7887 13.4269 10.5794 13.2645 10.4295C13.1083 10.2795 12.8802 10.2046 12.5804 10.2046C12.2867 10.2046 12.0587 10.2858 11.8962 10.4482C11.74 10.6044 11.6495 10.8043 11.6245 11.048H10.3406ZM15.4633 12.5756C15.4633 11.4947 15.657 10.6482 16.0444 10.0359C16.438 9.42361 17.0877 9.11747 17.9937 9.11747C18.8996 9.11747 19.5462 9.42361 19.9336 10.0359C20.3272 10.6482 20.524 11.4947 20.524 12.5756C20.524 13.6627 20.3272 14.5155 19.9336 15.134C19.5462 15.7525 18.8996 16.0618 17.9937 16.0618C17.0877 16.0618 16.438 15.7525 16.0444 15.134C15.657 14.5155 15.4633 13.6627 15.4633 12.5756ZM19.2307 12.5756C19.2307 12.1132 19.1995 11.7259 19.137 11.4135C19.0807 11.0949 18.962 10.8356 18.7809 10.6357C18.6059 10.4357 18.3435 10.3358 17.9937 10.3358C17.6438 10.3358 17.3783 10.4357 17.1971 10.6357C17.0221 10.8356 16.9034 11.0949 16.841 11.4135C16.7847 11.7259 16.7566 12.1132 16.7566 12.5756C16.7566 13.0504 16.7847 13.4502 16.841 13.7751C16.8972 14.0937 17.0159 14.353 17.1971 14.5529C17.3783 14.7466 17.6438 14.8435 17.9937 14.8435C18.3435 14.8435 18.609 14.7466 18.7902 14.5529C18.9714 14.353 19.0901 14.0937 19.1463 13.7751C19.2026 13.4502 19.2307 13.0504 19.2307 12.5756ZM10.8338 16.3724C11.2246 16.3724 11.5662 16.4499 11.8585 16.6048C12.1508 16.7598 12.3762 16.9781 12.5346 17.2598C12.6966 17.538 12.7776 17.8602 12.7776 18.2265C12.7776 18.5892 12.6966 18.9114 12.5346 19.1931C12.3762 19.4748 12.149 19.6931 11.8532 19.8481C11.5609 20.003 11.2211 20.0805 10.8338 20.0805H9.44455V16.3724H10.8338ZM10.7757 19.2987C11.1172 19.2987 11.3831 19.2054 11.5733 19.0188C11.7634 18.8321 11.8585 18.568 11.8585 18.2265C11.8585 17.8849 11.7634 17.619 11.5733 17.4288C11.3831 17.2387 11.1172 17.1436 10.7757 17.1436H10.3478V19.2987H10.7757ZM15.0889 19.4255H13.705L13.4831 20.0805H12.5376L13.8793 16.3724H14.9251L16.2668 20.0805H15.3107L15.0889 19.4255ZM14.8565 18.7283L14.3969 17.3707L13.9427 18.7283H14.8565ZM19.3532 16.3724L18.0697 18.855V20.0805H17.1664V18.855L15.8828 16.3724H16.9076L17.626 17.9254L18.339 16.3724H19.3532ZM20.557 20.1175C20.2859 20.1175 20.0429 20.0735 19.8281 19.9854C19.6133 19.8974 19.4407 19.7671 19.3104 19.5945C19.1837 19.422 19.1168 19.2142 19.1097 18.9712H20.0711C20.0852 19.1086 20.1327 19.2142 20.2137 19.2882C20.2947 19.3586 20.4003 19.3938 20.5306 19.3938C20.6644 19.3938 20.7701 19.3639 20.8476 19.304C20.925 19.2406 20.9638 19.1544 20.9638 19.0452C20.9638 18.9536 20.9321 18.8779 20.8687 18.8181C20.8088 18.7582 20.7331 18.7089 20.6415 18.6702C20.5535 18.6314 20.4267 18.5874 20.2612 18.5381C20.0218 18.4642 19.8263 18.3902 19.6749 18.3163C19.5235 18.2423 19.3932 18.1331 19.284 17.9888C19.1749 17.8444 19.1203 17.656 19.1203 17.4236C19.1203 17.0785 19.2453 16.8091 19.4953 16.6154C19.7453 16.4182 20.0711 16.3196 20.4725 16.3196C20.881 16.3196 21.2103 16.4182 21.4603 16.6154C21.7103 16.8091 21.8441 17.0802 21.8617 17.4288H20.8845C20.8775 17.3091 20.8335 17.2158 20.7525 17.1489C20.6715 17.0785 20.5676 17.0432 20.4408 17.0432C20.3317 17.0432 20.2436 17.0732 20.1767 17.133C20.1098 17.1894 20.0764 17.2721 20.0764 17.3813C20.0764 17.501 20.1327 17.5944 20.2454 17.6613C20.3581 17.7282 20.5341 17.8004 20.7736 17.8778C21.0131 17.9588 21.2067 18.0363 21.3546 18.1102C21.5061 18.1842 21.6364 18.2916 21.7455 18.4325C21.8547 18.5733 21.9093 18.7547 21.9093 18.9765C21.9093 19.1878 21.8547 19.3797 21.7455 19.5523C21.6399 19.7248 21.4849 19.8622 21.2807 19.9643C21.0764 20.0664 20.8352 20.1175 20.557 20.1175Z" fill="url(#paint1_linear_100_2137)"/>
<path d="M9.20118 22.1114H10.7347C15.0262 26.4028 18.9114 23.8995 20.3176 22.1114H21.9082" stroke="url(#paint2_linear_100_2137)" stroke-width="1.3" stroke-linejoin="round"/>
<path d="M9.20118 7.57014H10.7347C15.0262 3.2787 18.9114 5.78204 20.3176 7.57014H21.9082" stroke="url(#paint3_linear_100_2137)" stroke-width="1.3" stroke-linejoin="round"/>
</g>
<defs>
<linearGradient id="paint0_linear_100_2137" x1="15.637" y1="-0.834259" x2="15.637" y2="30.8343" gradientUnits="userSpaceOnUse">
<stop stop-color="#B10062"/>
<stop offset="1" stop-color="#F51627"/>
</linearGradient>
<linearGradient id="paint1_linear_100_2137" x1="15.3764" y1="4.08051" x2="15.3764" y2="25.345" gradientUnits="userSpaceOnUse">
<stop stop-color="#B10062"/>
<stop offset="1" stop-color="#F51627"/>
</linearGradient>
<linearGradient id="paint2_linear_100_2137" x1="15.5547" y1="24.4809" x2="15.5547" y2="22.1114" gradientUnits="userSpaceOnUse">
<stop stop-color="#B10062"/>
<stop offset="1" stop-color="#F51627"/>
</linearGradient>
<linearGradient id="paint3_linear_100_2137" x1="15.5547" y1="5.20061" x2="15.5547" y2="7.57014" gradientUnits="userSpaceOnUse">
<stop stop-color="#B10062"/>
<stop offset="1" stop-color="#F51627"/>
</linearGradient>
<clipPath id="clip0_100_2137">
<rect width="30" height="30" fill="white" transform="translate(0.636719)"/>
</clipPath>
</defs>
</svg>
