<svg width="31" height="31" id="virus" viewBox="0 0 31 31" fill="none" xmlns="http://www.w3.org/2000/svg">
<path fill-rule="evenodd" clip-rule="evenodd" d="M16.3248 0.795012L16.0281 0.702873L15.7315 0.795012L3.52758 4.58572L2.82422 4.8042V5.54071V8.5H4.82422V6.27723L16.0281 2.79713L27.232 6.27723V8.5H29.232V5.54071V4.8042L28.5287 4.58572L16.3248 0.795012ZM29.1818 22.375H27.1352C26.9723 22.9092 26.6121 23.3716 26.1144 23.6584L18.5246 28.0322C16.9794 28.9226 15.0769 28.9226 13.5316 28.0322L5.94188 23.6584C5.44417 23.3716 5.08394 22.9092 4.92111 22.375H2.87445C3.06961 23.6303 3.82265 24.7455 4.94328 25.3912L12.533 29.765C14.6963 31.0117 17.3599 31.0117 19.5232 29.765L27.113 25.3912C28.2336 24.7455 28.9867 23.6303 29.1818 22.375Z" fill="url(#paint0_linear_100_2132)"/>
<path d="M5.86938 20.9615H4.10516V13.8746C4.10516 13.0288 4.12518 12.3582 4.16522 11.8627C4.05011 11.9828 3.90747 12.1154 3.7373 12.2606C3.57214 12.4057 3.0116 12.8661 2.05566 13.6419L1.1698 12.5233L4.39795 9.98584H5.86938V20.9615Z" fill="url(#paint1_linear_100_2132)"/>
<path d="M14.9641 15.4737C14.9641 17.3806 14.6562 18.7969 14.0406 19.7228C13.4301 20.6487 12.4941 21.1117 11.2329 21.1117C10.0117 21.1117 9.08582 20.6337 8.4552 19.6778C7.82458 18.7219 7.50928 17.3205 7.50928 15.4737C7.50928 13.5368 7.81458 12.1104 8.42517 11.1945C9.04077 10.2736 9.97668 9.81317 11.2329 9.81317C12.4591 9.81317 13.3875 10.2936 14.0181 11.2546C14.6487 12.2155 14.9641 13.6219 14.9641 15.4737ZM9.29602 15.4737C9.29602 16.9702 9.44867 18.0387 9.75397 18.6793C10.0643 19.3199 10.5573 19.6403 11.2329 19.6403C11.9086 19.6403 12.4016 19.3149 12.7119 18.6643C13.0272 18.0137 13.1848 16.9501 13.1848 15.4737C13.1848 14.0023 13.0272 12.9387 12.7119 12.2831C12.4016 11.6224 11.9086 11.2921 11.2329 11.2921C10.5573 11.2921 10.0643 11.6149 9.75397 12.2606C9.44867 12.9062 9.29602 13.9772 9.29602 15.4737Z" fill="url(#paint2_linear_100_2132)"/>
<path d="M23.6301 15.4737C23.6301 17.3806 23.3223 18.7969 22.7067 19.7228C22.0961 20.6487 21.1602 21.1117 19.8989 21.1117C18.6777 21.1117 17.7518 20.6337 17.1212 19.6778C16.4906 18.7219 16.1753 17.3205 16.1753 15.4737C16.1753 13.5368 16.4806 12.1104 17.0912 11.1945C17.7068 10.2736 18.6427 9.81317 19.8989 9.81317C21.1251 9.81317 22.0535 10.2936 22.6841 11.2546C23.3148 12.2155 23.6301 13.6219 23.6301 15.4737ZM17.962 15.4737C17.962 16.9702 18.1147 18.0387 18.42 18.6793C18.7303 19.3199 19.2233 19.6403 19.8989 19.6403C20.5746 19.6403 21.0676 19.3149 21.3779 18.6643C21.6932 18.0137 21.8508 16.9501 21.8508 15.4737C21.8508 14.0023 21.6932 12.9387 21.3779 12.2831C21.0676 11.6224 20.5746 11.2921 19.8989 11.2921C19.2233 11.2921 18.7303 11.6149 18.42 12.2606C18.1147 12.9062 17.962 13.9772 17.962 15.4737Z" fill="url(#paint3_linear_100_2132)"/>
<path d="M29.6992 11.6876L25.1992 18.8126" stroke="url(#paint4_linear_100_2132)" stroke-width="1.125" stroke-linecap="round"/>
<circle cx="25.9492" cy="12.4375" r="1.3125" fill="url(#paint5_linear_100_2132)"/>
<circle cx="28.9492" cy="18.0625" r="1.3125" fill="url(#paint6_linear_100_2132)"/>
<defs>
<linearGradient id="paint0_linear_100_2132" x1="16.0281" y1="0.702873" x2="16.0281" y2="30.7" gradientUnits="userSpaceOnUse">
<stop stop-color="#B10062"/>
<stop offset="1" stop-color="#F51627"/>
</linearGradient>
<linearGradient id="paint1_linear_100_2132" x1="2.75967" y1="6.96155" x2="2.75967" y2="22.9799" gradientUnits="userSpaceOnUse">
<stop stop-color="#B10062"/>
<stop offset="1" stop-color="#F51627"/>
</linearGradient>
<linearGradient id="paint2_linear_100_2132" x1="10.2811" y1="6.96155" x2="10.2811" y2="22.9799" gradientUnits="userSpaceOnUse">
<stop stop-color="#B10062"/>
<stop offset="1" stop-color="#F51627"/>
</linearGradient>
<linearGradient id="paint3_linear_100_2132" x1="19.176" y1="6.96155" x2="19.176" y2="22.9799" gradientUnits="userSpaceOnUse">
<stop stop-color="#B10062"/>
<stop offset="1" stop-color="#F51627"/>
</linearGradient>
<linearGradient id="paint4_linear_100_2132" x1="30.3555" y1="12.3438" x2="24.543" y2="18.1563" gradientUnits="userSpaceOnUse">
<stop stop-color="#B10062"/>
<stop offset="1" stop-color="#F51627"/>
</linearGradient>
<linearGradient id="paint5_linear_100_2132" x1="25.9492" y1="11.125" x2="25.9492" y2="13.75" gradientUnits="userSpaceOnUse">
<stop stop-color="#B10062"/>
<stop offset="1" stop-color="#F51627"/>
</linearGradient>
<linearGradient id="paint6_linear_100_2132" x1="28.9492" y1="16.75" x2="28.9492" y2="19.375" gradientUnits="userSpaceOnUse">
<stop stop-color="#B10062"/>
<stop offset="1" stop-color="#F51627"/>
</linearGradient>
</defs>
</svg>
